<?xml version="1.0" encoding="UTF-8"?>
<svg width="91.44mm" height="91.44mm" clip-rule="evenodd" fill-rule="evenodd" image-rendering="optimizeQuality" shape-rendering="geometricPrecision" text-rendering="geometricPrecision" version="1.1" viewBox="0 0 9144 9144" xmlns="http://www.w3.org/2000/svg">
 <defs>
  <style type="text/css">.str0 {stroke:white;stroke-width:176.38;stroke-linecap:round;stroke-linejoin:round} .fil1 {fill:none} .fil2 {fill:none;fill-rule:nonzero} .fil0 {fill:url(#a)}</style>
  <linearGradient id="a" x1="8595.4" x2="548.64" y1="8595.4" y2="548.63" gradientUnits="userSpaceOnUse">
   <stop stop-color="#48CFAE" offset="0"/>
   <stop stop-color="#4FC0E8" offset="1"/>
  </linearGradient>
 </defs>
 <polygon class="fil0" points="0 0 9144 0 9144 9144 0 9144"/>
 <circle class="fil1 str0" cx="4572" cy="4572" r="2117"/>
 <path class="fil2 str0" d="m3636 4105l906-481c19-10 42-3 52 16 3 5 4 12 4 18v712c14 2 28 6 41 12 25 10 47 25 67 44 1 1 1 2 2 3 39 40 58 91 58 143 0 53-20 105-60 146-1 0-2 1-3 2-18 18-40 32-64 42-13 6-27 10-41 12v712c0 21-17 39-38 39-7 0-13-2-19-5l-905-481h-448c-21 0-38-17-38-38v-858c0-21 17-38 38-38h448z"/>
 <line class="fil1 str0" x1="3636" x2="3636" y1="4105" y2="5039"/>
 <line class="fil1 str0" x1="4598" x2="4598" y1="4149" y2="4995"/>
 <line class="fil1 str0" x1="5344" x2="5942" y1="4273" y2="4871"/>
 <line class="fil1 str0" x1="5942" x2="5344" y1="4273" y2="4871"/>
</svg>
