<?xml version='1.0' encoding='utf-8'?>
<svg xmlns="http://www.w3.org/2000/svg" viewBox="0 0 800 800"><defs><clipPath id="a"><circle cx="400" cy="400" r="400" style="fill:none"/></clipPath><linearGradient id="b" x1="407.78" y1="391.78" x2="180.31" y2="619.24" gradientUnits="userSpaceOnUse"><stop offset="0"/><stop offset="1" stop-opacity="0"/></linearGradient><mask id="c" x="-557.51" y="-184.71" width="1512.98" height="1512.98" maskUnits="userSpaceOnUse"><circle cx="198.98" cy="571.78" r="756.49" style="fill:#fff"/></mask></defs><circle cx="400" cy="400" r="400" style="fill:#1c8adb"/><g style="clip-path:url(#a)"><path d="M262.11,788.34,523.78,526.68c38.68-37.94,60.07-93.45,51.22-153.6A176.42,176.42,0,0,0,426.47,224.55c-59.84-8.79-115.08,12.33-153,50.63l-260,260C39.12,664,122.3,748.13,262.11,788.34Z" style="opacity:0.42;fill:url(#b)"/><g style="mask:url(#c)"><path d="M399.56,577.42c106.81,0,191.6-94.42,175.44-204.34A176.42,176.42,0,0,0,426.47,224.55C317.22,208.5,223.29,292.15,222.14,398a2,2,0,0,1-2,2H182.92a8.35,8.35,0,0,0-6,14.21l58.19,59.23a8.37,8.37,0,0,0,11.87.06l59.36-59.23a8.35,8.35,0,0,0-5.9-14.27H263.56a2,2,0,0,1-2-2,137.88,137.88,0,0,1,136-136c77.4-1.1,141,62.52,140,139.92A137.73,137.73,0,0,1,307.75,502.71a8.11,8.11,0,0,0-11.18.27l-16.52,16.53a8.12,8.12,0,0,0,.27,11.74,176.37,176.37,0,0,0,119.24,46.18Z" style="fill:#fff"/></g></g></svg>